<svg width="512" height="512" viewBox="0 0 512 512" fill="none" xmlns="http://www.w3.org/2000/svg" role="img" aria-label="Lumen icon">
  <defs>
    <linearGradient id="bg" x1="0" y1="0" x2="512" y2="512" gradientUnits="userSpaceOnUse">
      <stop stop-color="#0A2540"/><stop offset="0.55" stop-color="#0E2E54"/><stop offset="1" stop-color="#13386B"/>
    </linearGradient>
    <linearGradient id="beam" x1="256" y1="120" x2="256" y2="400" gradientUnits="userSpaceOnUse">
      <stop stop-color="#7FE7FF"/><stop offset="1" stop-color="#3AA0FF"/>
    </linearGradient>
    <radialGradient id="glow" cx="0.5" cy="0.44" r="0.6">
      <stop stop-color="#BFefff" stop-opacity="0.95"/><stop offset="0.45" stop-color="#5BB8FF" stop-opacity="0.5"/><stop offset="1" stop-color="#5BB8FF" stop-opacity="0"/>
    </radialGradient>
    <linearGradient id="ring" x1="120" y1="120" x2="400" y2="400" gradientUnits="userSpaceOnUse">
      <stop stop-color="#7FE7FF"/><stop offset="1" stop-color="#2E7BE6"/>
    </linearGradient>
  </defs>
  <rect width="512" height="512" rx="112" fill="url(#bg)"/>
  <g transform="translate(256,256)">
    <circle r="190" fill="url(#glow)"/>
    <path d="M0,-128 C54,-128 106,-113 118,-106 C118,-37 106,64 0,128 C-106,64 -118,-37 -118,-106 C-106,-113 -54,-128 0,-128 Z"
          fill="none" stroke="url(#ring)" stroke-width="11" opacity="0.9"/>
    <g stroke="url(#beam)" stroke-width="9" stroke-linecap="round" opacity="0.92">
      <line x1="0" y1="-158" x2="0" y2="-186"/>
      <line x1="111" y1="-111" x2="131" y2="-131"/>
      <line x1="158" y1="0" x2="186" y2="0"/>
      <line x1="-111" y1="-111" x2="-131" y2="-131"/>
      <line x1="-158" y1="0" x2="-186" y2="0"/>
    </g>
    <path d="M0,-82 C42,-32 54,2 54,28 a54,54 0 1 1 -108,0 C-54,2 -42,-32 0,-82 Z" fill="url(#beam)"/>
    <circle cx="0" cy="30" r="27" fill="#0A2540" opacity="0.25"/>
    <circle cx="-10" cy="15" r="13" fill="#EAFBFF" opacity="0.9"/>
  </g>
</svg>
